<svg width="31" height="32" viewBox="0 0 31 32" fill="none" xmlns="http://www.w3.org/2000/svg">
<path d="M30.9837 16.2993C30.9837 14.9883 30.8782 14.0316 30.65 13.0394H15.8088V18.9567H24.5203C24.3447 20.4273 23.3963 22.6419 21.2886 24.13L21.2591 24.3281L25.9516 27.995L26.2767 28.0278C29.2624 25.2462 30.9837 21.1536 30.9837 16.2993" fill="#4285F4"/>
<path d="M15.8088 31.8901C20.0767 31.8901 23.6596 30.4727 26.2767 28.0279L21.2886 24.1301C19.9538 25.0691 18.1623 25.7246 15.8088 25.7246C11.6288 25.7246 8.08096 22.9432 6.81626 19.0986L6.63089 19.1145L1.75155 22.9236L1.68774 23.1025C4.28712 28.3112 9.62644 31.8901 15.8088 31.8901Z" fill="#34A853"/>
<path d="M6.81628 19.0986C6.48258 18.1065 6.28946 17.0434 6.28946 15.945C6.28946 14.8465 6.48258 13.7835 6.79873 12.7914L6.78989 12.5801L1.84941 8.70984L1.68777 8.7874C0.616439 10.9489 0.00170898 13.3761 0.00170898 15.945C0.00170898 18.5139 0.616439 20.941 1.68777 23.1025L6.81628 19.0986" fill="#FBBC05"/>
<path d="M15.8088 6.16537C18.777 6.16537 20.7792 7.45869 21.9209 8.53948L26.382 4.14571C23.6422 1.57679 20.0767 0 15.8088 0C9.62644 0 4.28712 3.57875 1.68774 8.78742L6.7987 12.7915C8.08096 8.94693 11.6288 6.16537 15.8088 6.16537" fill="#EB4335"/>
</svg>
